<svg width="72" height="72" viewBox="0 0 72 72" fill="none" xmlns="http://www.w3.org/2000/svg">
<circle cx="36" cy="36" r="36" fill="#A9D6CB"/>
<path d="M18.6508 34.6595C17.8336 35.4805 17.3749 36.5917 17.375 37.75V44.1725C17.3717 47.0167 18.3162 49.781 20.0592 52.0285C21.8022 54.2761 24.2445 55.8788 27 56.5835V59.625C27 59.8571 27.0922 60.0796 27.2563 60.2437C27.4204 60.4078 27.6429 60.5 27.875 60.5H40.125C40.3571 60.5 40.5796 60.4078 40.7437 60.2437C40.9078 60.0796 41 59.8571 41 59.625V56.5835C43.7556 55.8788 46.1978 54.2761 47.9408 52.0285C49.6838 49.781 50.6283 47.0167 50.625 44.1725V40.8204C51.4664 40.798 52.2941 40.6016 53.0558 40.2435C53.8175 39.8854 54.4968 39.3733 55.0508 38.7396L57.4071 36.0621C57.49 35.9674 57.5514 35.8559 57.5872 35.7353C57.623 35.6147 57.6324 35.4877 57.6147 35.3632C57.597 35.2386 57.5527 35.1193 57.4847 35.0134C57.4167 34.9075 57.3267 34.8176 57.2208 34.7496L54.2125 32.8281C53.3601 32.2816 52.3846 31.957 51.3748 31.8838C50.3649 31.8106 49.3528 31.9911 48.4305 32.409L49.1156 31.2356L52.1781 30.1725C53.5637 29.6995 54.7325 28.7434 55.4708 27.4792C56.2092 26.215 56.4676 24.7271 56.1988 23.288L55.56 19.7784C55.5373 19.6543 55.4881 19.5366 55.4156 19.4333C55.3432 19.33 55.2492 19.2436 55.1403 19.1801C55.0313 19.1165 54.9099 19.0772 54.7844 19.0649C54.6588 19.0527 54.5321 19.0677 54.4129 19.109L51.0424 20.2771C49.6577 20.7511 48.4899 21.7078 47.7526 22.9721C47.0152 24.2364 46.7577 25.7239 47.027 27.1625L47.608 30.3519L46.9386 31.4981C46.8414 30.4939 46.4962 29.5296 45.934 28.6919C45.3717 27.8542 44.6102 27.1693 43.7178 26.6988L40.5678 25.0223C40.4563 24.9628 40.3333 24.9282 40.2073 24.9207C40.0812 24.9133 39.955 24.9333 39.8373 24.9793C39.7197 25.0252 39.6134 25.0961 39.5258 25.1871C39.4381 25.278 39.3712 25.3869 39.3296 25.5061L38.1563 28.8723C37.6397 30.3412 37.7041 31.9521 38.3365 33.375H31.5806L30.2778 29.2039C29.9721 28.221 29.3021 27.3922 28.405 26.8874C27.508 26.3826 26.4518 26.24 25.453 26.4888C24.4542 26.7376 23.5884 27.359 23.033 28.2256C22.4776 29.0922 22.2746 30.1384 22.4658 31.1499L22.8875 33.375H21.75C20.5876 33.3757 19.4729 33.8376 18.6508 34.6595ZM51.6208 21.93L54.027 21.097L54.4829 23.6021C54.6747 24.6301 54.49 25.6927 53.9625 26.5956C53.4349 27.4984 52.5999 28.1811 51.6103 28.5188L49.2049 29.3526L48.749 26.8475C48.5571 25.8196 48.7417 24.7569 49.269 23.8539C49.7963 22.9509 50.6312 22.268 51.6208 21.93ZM39.25 58.75H28.75V56.9125C29.2322 56.9685 29.7171 56.9977 30.2025 57H37.7975C38.2829 56.9977 38.7678 56.9685 39.25 56.9125V58.75ZM48.875 44.1725C48.8755 45.6273 48.5893 47.068 48.0327 48.4122C47.4762 49.7564 46.6602 50.9778 45.6315 52.0065C44.6028 53.0352 43.3814 53.8512 42.0372 54.4077C40.693 54.9642 39.2524 55.2505 37.7975 55.25H30.2025C27.3655 55.2595 24.6339 54.1749 22.5761 52.2219C20.5183 50.2688 19.2926 47.5977 19.1539 44.764C20.1705 45.3303 21.3152 45.6268 22.4789 45.625H24.375C24.6071 45.625 24.8296 45.5328 24.9937 45.3687C25.1578 45.2046 25.25 44.9821 25.25 44.75C25.25 44.5179 25.1578 44.2954 24.9937 44.1313C24.8296 43.9672 24.6071 43.875 24.375 43.875H22.4754C21.2423 43.8767 20.051 43.4284 19.125 42.6141V41.2273C19.8778 41.8063 20.8002 42.1218 21.75 42.125H46.25C47.1996 42.1206 48.1216 41.8053 48.875 41.2273V44.1725ZM43.7834 40.375L44.9209 38.429L47.1591 39.857C47.2703 39.9288 47.3884 39.9804 47.5021 40.0434C47.1193 40.2575 46.6886 40.3716 46.25 40.375H43.7834ZM47.6334 35.1014C48.3202 34.3129 49.2681 33.7983 50.3034 33.6516C51.3387 33.5048 52.3922 33.7359 53.271 34.3025L55.4183 35.6719L53.7365 37.5838C53.0498 38.3723 52.1019 38.8871 51.0666 39.0339C50.0312 39.1806 48.9777 38.9494 48.0989 38.3826L45.9525 37.0124L47.6334 35.1014ZM39.8083 29.4498L40.6465 27.0453L42.8944 28.2423C43.8196 28.7294 44.5384 29.5334 44.9194 30.5071C45.3003 31.4808 45.318 32.5591 44.969 33.5448L44.1308 35.9484L41.882 34.7522C40.9573 34.2647 40.2389 33.4606 39.8583 32.4869C39.4777 31.5133 39.4602 30.4352 39.8091 29.4498H39.8083ZM39.5125 35.125C39.9631 35.5947 40.4853 35.9901 41.0595 36.2966L43.4063 37.5461L41.7578 40.375H33.7681L33.2213 38.625H34.875C35.1071 38.625 35.3296 38.5328 35.4937 38.3687C35.6578 38.2046 35.75 37.9821 35.75 37.75C35.75 37.5179 35.6578 37.2954 35.4937 37.1313C35.3296 36.9672 35.1071 36.875 34.875 36.875H32.6744L32.1275 35.125H39.5125ZM24.6725 28.9501C24.9345 28.6333 25.2772 28.3931 25.6645 28.255C26.0517 28.1169 26.4691 28.086 26.8724 28.1655C27.2758 28.245 27.6502 28.432 27.956 28.7067C28.2619 28.9814 28.4878 29.3337 28.61 29.7263L31.935 40.375H25.9763L24.186 30.827C24.1238 30.4976 24.1352 30.1586 24.2193 29.8341C24.3034 29.5097 24.4582 29.2078 24.6725 28.9501ZM23.2113 35.125L23.5394 36.875H21.75C21.5179 36.875 21.2954 36.9672 21.1313 37.1313C20.9672 37.2954 20.875 37.5179 20.875 37.75C20.875 37.9821 20.9672 38.2046 21.1313 38.3687C21.2954 38.5328 21.5179 38.625 21.75 38.625H23.8675L24.1956 40.375H21.75C21.0538 40.375 20.3861 40.0984 19.8939 39.6062C19.4016 39.1139 19.125 38.4462 19.125 37.75C19.125 37.0538 19.4016 36.3861 19.8939 35.8938C20.3861 35.4016 21.0538 35.125 21.75 35.125H23.2113Z" fill="#264065"/>
<path d="M28.75 43.875H27.875C27.6429 43.875 27.4204 43.9672 27.2563 44.1313C27.0922 44.2954 27 44.5179 27 44.75C27 44.9821 27.0922 45.2046 27.2563 45.3687C27.4204 45.5328 27.6429 45.625 27.875 45.625H28.75C28.9821 45.625 29.2046 45.5328 29.3687 45.3687C29.5328 45.2046 29.625 44.9821 29.625 44.75C29.625 44.5179 29.5328 44.2954 29.3687 44.1313C29.2046 43.9672 28.9821 43.875 28.75 43.875ZM38.375 38.625H39.25C39.4821 38.625 39.7046 38.5328 39.8687 38.3687C40.0328 38.2046 40.125 37.9821 40.125 37.75C40.125 37.5179 40.0328 37.2954 39.8687 37.1313C39.7046 36.9672 39.4821 36.875 39.25 36.875H38.375C38.1429 36.875 37.9204 36.9672 37.7563 37.1313C37.5922 37.2954 37.5 37.5179 37.5 37.75C37.5 37.9821 37.5922 38.2046 37.7563 38.3687C37.9204 38.5328 38.1429 38.625 38.375 38.625ZM28.0036 17.3966C27.897 17.7246 27.8561 18.0703 27.8831 18.4141C27.9101 18.7578 28.0047 19.0929 28.1612 19.4001C28.3178 19.7074 28.5334 19.9808 28.7957 20.2046C29.0579 20.4285 29.3617 20.5986 29.6897 20.705C30.0625 20.8262 30.4519 20.8879 30.8439 20.8879C30.9585 20.8879 31.0705 20.8651 31.1842 20.8546C31.0887 21.2405 31.082 21.643 31.1648 22.0318C31.2475 22.4207 31.4175 22.7856 31.6618 23.0992C31.9062 23.4127 32.2186 23.6667 32.5754 23.8418C32.9323 24.017 33.3242 24.1089 33.7217 24.1105C33.8609 24.1105 33.9999 24.0997 34.1374 24.0781C34.4782 24.0251 34.8051 23.905 35.0992 23.7248C35.3933 23.5446 35.6487 23.3078 35.8506 23.0281C36.1508 22.6159 36.3626 22.1461 36.4727 21.6483C36.9882 21.9678 37.5987 22.0982 38.1997 22.0172C38.8008 21.9363 39.355 21.649 39.7676 21.2045C40.1801 20.7599 40.4254 20.1859 40.4614 19.5805C40.4974 18.9751 40.3219 18.376 39.9649 17.8858C39.6683 17.4775 39.2917 17.1339 38.858 16.876C39.3193 16.4817 39.6297 15.9397 39.7365 15.3423C39.8432 14.7449 39.7396 14.1289 39.4434 13.5993C39.1472 13.0696 38.6766 12.6589 38.1116 12.4372C37.5467 12.2154 36.9225 12.1962 36.345 12.3829C35.8652 12.5389 35.4222 12.7911 35.043 13.124C34.8098 12.5646 34.3903 12.1032 33.8556 11.818C33.3209 11.5328 32.7039 11.4413 32.1095 11.5592C31.5151 11.6771 30.9797 11.997 30.5943 12.4647C30.2089 12.9324 29.9972 13.519 29.9951 14.125C29.9952 14.6286 30.0976 15.1269 30.2961 15.5897C29.7783 15.631 29.2843 15.8246 28.8763 16.1461C28.4684 16.4677 28.1647 16.9028 28.0036 17.3966ZM38.55 18.913C38.6176 19.006 38.6662 19.1113 38.693 19.2231C38.7199 19.3348 38.7244 19.4507 38.7065 19.5642C38.6885 19.6777 38.6484 19.7866 38.5883 19.8846C38.5283 19.9826 38.4496 20.0678 38.3566 20.1354C38.2637 20.2029 38.1583 20.2515 38.0466 20.2784C37.9348 20.3052 37.8189 20.3098 37.7054 20.2919C37.5919 20.2739 37.483 20.2338 37.385 20.1737C37.287 20.1137 37.2018 20.035 37.1342 19.942L35.9092 18.2559L36.646 18.1334C37.0045 18.0729 37.3728 18.1138 37.7092 18.2516C38.0457 18.3893 38.3369 18.6184 38.55 18.913ZM35.5575 15.6169C35.6102 15.257 35.7627 14.9191 35.9978 14.6417C36.2329 14.3642 36.5412 14.1582 36.8875 14.0471C36.9744 14.0181 37.0654 14.0034 37.157 14.0034C37.3659 14.0026 37.5681 14.0765 37.7272 14.2118C37.8864 14.3471 37.9918 14.5348 38.0246 14.7411C38.0574 14.9474 38.0153 15.1586 37.9059 15.3366C37.7965 15.5145 37.6271 15.6474 37.4282 15.7114L35.4464 16.3554L35.5575 15.6169ZM34.5897 19.9481C34.7586 20.2702 34.8339 20.6332 34.807 20.9958C34.7801 21.3585 34.6521 21.7064 34.4375 22C34.3699 22.093 34.2847 22.1717 34.1867 22.2317C34.0887 22.2918 33.9799 22.3319 33.8664 22.3498C33.7528 22.3678 33.6369 22.3632 33.5252 22.3364C33.4134 22.3095 33.3081 22.2609 33.2151 22.1934C33.1222 22.1258 33.0434 22.0406 32.9834 21.9426C32.9234 21.8446 32.8832 21.7357 32.8653 21.6222C32.8473 21.5087 32.8519 21.3928 32.8787 21.2811C32.9056 21.1693 32.9542 21.064 33.0217 20.971L34.2467 19.2849L34.5897 19.9481ZM32.6201 13.25C32.8522 13.25 33.0747 13.3422 33.2388 13.5063C33.4029 13.6704 33.4951 13.8929 33.4951 14.125V16.2092L32.8266 15.875C32.5007 15.7136 32.2266 15.4641 32.0355 15.1548C31.8443 14.8454 31.7437 14.4887 31.7451 14.125C31.7451 13.8929 31.8373 13.6704 32.0014 13.5063C32.1655 13.3422 32.3881 13.25 32.6201 13.25ZM29.6687 17.9374C29.7258 17.7618 29.8369 17.6087 29.9862 17.5001C30.1355 17.3915 30.3154 17.3329 30.5 17.3328C30.5924 17.3327 30.6842 17.3472 30.7721 17.3756L32.754 18.0196L32.229 18.5525C31.9747 18.8124 31.6527 18.9958 31.2994 19.082C30.9462 19.1681 30.5759 19.1535 30.2305 19.0399C30.0098 18.9682 29.8267 18.8117 29.7213 18.605C29.616 18.3982 29.5971 18.1581 29.6687 17.9374ZM26.5161 15.4524C26.4133 15.4009 26.3014 15.3702 26.1868 15.3621C26.0721 15.3539 25.957 15.3684 25.848 15.4047C25.7389 15.441 25.6381 15.4984 25.5513 15.5737C25.4644 15.649 25.3933 15.7407 25.3419 15.8435C25.0112 16.509 24.8391 17.242 24.8391 17.9851C24.8391 18.7282 25.0112 19.4612 25.3419 20.1266C25.4149 20.2727 25.5273 20.3955 25.6665 20.481C25.8057 20.5665 25.966 20.6114 26.1294 20.6105C26.2649 20.6105 26.3986 20.5787 26.5196 20.5178C26.6225 20.4664 26.7142 20.3953 26.7896 20.3085C26.865 20.2217 26.9226 20.1209 26.959 20.0119C26.9954 19.9028 27.0099 19.7877 27.0018 19.673C26.9937 19.5583 26.963 19.4463 26.9116 19.3435C26.7014 18.9215 26.592 18.4565 26.592 17.9851C26.592 17.5136 26.7014 17.0486 26.9116 16.6266C26.9629 16.5236 26.9934 16.4114 27.0012 16.2966C27.0091 16.1818 26.9943 16.0665 26.9575 15.9574C26.9208 15.8484 26.8629 15.7476 26.7871 15.6609C26.7114 15.5743 26.6193 15.5034 26.5161 15.4524ZM41.9284 20.8284C41.8364 20.9025 41.7603 20.9944 41.7048 21.0987C41.6493 21.203 41.6155 21.3174 41.6054 21.4351C41.5953 21.5527 41.6092 21.6713 41.6461 21.7835C41.6831 21.8956 41.7423 21.9992 41.8204 22.0879C41.8984 22.1765 41.9936 22.2485 42.1002 22.2994C42.2067 22.3503 42.3225 22.3791 42.4405 22.3841C42.5586 22.389 42.6764 22.37 42.7868 22.3282C42.8973 22.2864 42.9982 22.2227 43.0834 22.1409L43.2382 22.0044C43.7569 21.5516 44.1384 20.9626 44.3395 20.3041C44.5405 19.6456 44.5531 18.9439 44.3757 18.2786C44.349 18.1649 44.2998 18.0578 44.231 17.9634C44.1622 17.869 44.0752 17.7894 43.9752 17.7292C43.8751 17.669 43.764 17.6294 43.6484 17.6128C43.5328 17.5962 43.415 17.6029 43.3021 17.6325C43.1891 17.6621 43.0832 17.714 42.9906 17.7852C42.8981 17.8564 42.8207 17.9454 42.763 18.0469C42.7054 18.1485 42.6686 18.2606 42.655 18.3766C42.6413 18.4925 42.651 18.6101 42.6835 18.7222C42.7768 19.0738 42.7698 19.4445 42.6632 19.7923C42.5567 20.1401 42.3548 20.4511 42.0806 20.6901L41.9284 20.8284Z" fill="#264065"/>
</svg>
