<svg width="96" height="32" viewBox="0 0 96 32" fill="none" xmlns="http://www.w3.org/2000/svg">
<g clip-path="url(#clip0_534_91)">
<path d="M27.6133 25.72L23.08 21.2C24.5427 19.3366 25.3363 17.0355 25.3333 14.6667C25.3333 12.557 24.7077 10.4947 23.5357 8.74059C22.3636 6.98646 20.6977 5.61929 18.7486 4.81196C16.7996 4.00462 14.6548 3.79339 12.5857 4.20496C10.5166 4.61654 8.61596 5.63244 7.1242 7.1242C5.63244 8.61596 4.61654 10.5166 4.20496 12.5857C3.79339 14.6548 4.00462 16.7996 4.81196 18.7486C5.61929 20.6977 6.98646 22.3636 8.74059 23.5357C10.4947 24.7077 12.557 25.3333 14.6667 25.3333C17.0355 25.3363 19.3366 24.5427 21.2 23.08L25.72 27.6133C25.844 27.7383 25.9914 27.8375 26.1539 27.9052C26.3164 27.9729 26.4907 28.0077 26.6667 28.0077C26.8427 28.0077 27.017 27.9729 27.1794 27.9052C27.3419 27.8375 27.4894 27.7383 27.6133 27.6133C27.7383 27.4894 27.8375 27.3419 27.9052 27.1794C27.9729 27.017 28.0077 26.8427 28.0077 26.6667C28.0077 26.4907 27.9729 26.3164 27.9052 26.1539C27.8375 25.9914 27.7383 25.844 27.6133 25.72ZM6.66667 14.6667C6.66667 13.0844 7.13586 11.5377 8.01491 10.2221C8.89397 8.90652 10.1434 7.88114 11.6052 7.27564C13.067 6.67013 14.6755 6.51171 16.2274 6.82039C17.7792 7.12907 19.2047 7.891 20.3235 9.00982C21.4423 10.1286 22.2043 11.5541 22.513 13.1059C22.8216 14.6578 22.6632 16.2663 22.0577 17.7281C21.4522 19.1899 20.4268 20.4394 19.1112 21.3184C17.7956 22.1975 16.2489 22.6667 14.6667 22.6667C12.5449 22.6667 10.5101 21.8238 9.00982 20.3235C7.50953 18.8232 6.66667 16.7884 6.66667 14.6667Z" fill="#264065"/>
</g>
<path d="M89.3333 9.33335H85.3333V8.00002C85.3333 6.58553 84.7714 5.22898 83.7712 4.22878C82.771 3.22859 81.4145 2.66669 80 2.66669C78.5855 2.66669 77.2289 3.22859 76.2287 4.22878C75.2285 5.22898 74.6666 6.58553 74.6666 8.00002V9.33335H70.6666C70.313 9.33335 69.9739 9.47383 69.7238 9.72388C69.4738 9.97393 69.3333 10.3131 69.3333 10.6667V25.3334C69.3333 26.3942 69.7547 27.4116 70.5049 28.1618C71.255 28.9119 72.2724 29.3334 73.3333 29.3334H86.6666C87.7275 29.3334 88.7449 28.9119 89.4951 28.1618C90.2452 27.4116 90.6666 26.3942 90.6666 25.3334V10.6667C90.6666 10.3131 90.5262 9.97393 90.2761 9.72388C90.0261 9.47383 89.6869 9.33335 89.3333 9.33335ZM77.3333 8.00002C77.3333 7.29278 77.6143 6.6145 78.1144 6.1144C78.6145 5.61431 79.2927 5.33335 80 5.33335C80.7072 5.33335 81.3855 5.61431 81.8856 6.1144C82.3857 6.6145 82.6666 7.29278 82.6666 8.00002V9.33335H77.3333V8.00002ZM88 25.3334C88 25.687 87.8595 26.0261 87.6095 26.2762C87.3594 26.5262 87.0203 26.6667 86.6666 26.6667H73.3333C72.9797 26.6667 72.6406 26.5262 72.3905 26.2762C72.1405 26.0261 72 25.687 72 25.3334V12H74.6666V13.3334C74.6666 13.687 74.8071 14.0261 75.0572 14.2762C75.3072 14.5262 75.6464 14.6667 76 14.6667C76.3536 14.6667 76.6927 14.5262 76.9428 14.2762C77.1928 14.0261 77.3333 13.687 77.3333 13.3334V12H82.6666V13.3334C82.6666 13.687 82.8071 14.0261 83.0572 14.2762C83.3072 14.5262 83.6464 14.6667 84 14.6667C84.3536 14.6667 84.6927 14.5262 84.9428 14.2762C85.1928 14.0261 85.3333 13.687 85.3333 13.3334V12L88 12V25.3334Z" fill="#264065"/>
<defs>
<clipPath id="clip0_534_91">
<rect width="32" height="32" fill="white"/>
</clipPath>
</defs>
</svg>
