<svg width="473" height="437" viewBox="0 0 473 437" fill="none" xmlns="http://www.w3.org/2000/svg">
<path d="M328.624 210.026C330.006 174.31 324.006 138.692 310.998 105.399C297.99 72.1071 278.254 41.8561 253.024 16.5375L236.25 0L219.476 16.5375C195.231 40.5916 176.018 69.2322 162.957 100.789C149.896 132.346 143.249 166.187 143.404 200.34C143.404 203.647 143.404 206.955 143.404 210.026C107.204 188.342 65.8221 176.833 23.625 176.715H1.8664e-08V200.34C-0.000735761 258.908 21.7532 315.388 61.0413 358.823C100.329 402.258 154.351 429.552 212.625 435.409V436.59H259.875V435.409C318.149 429.552 372.171 402.258 411.459 358.823C450.747 315.388 472.501 258.908 472.5 200.34V176.715H448.875C406.517 176.748 364.961 188.26 328.624 210.026ZM236.25 68.7487C256.529 94.5554 270.558 124.706 277.239 156.84C283.919 188.974 283.071 222.218 274.759 253.969C259.235 270.896 246.262 289.997 236.25 310.669C226.238 289.997 213.265 270.896 197.741 253.969C193.123 236.464 190.741 218.444 190.654 200.34C190.482 152.573 206.561 106.169 236.25 68.7487ZM48.9038 225.619C89.9413 231.148 128.027 250.002 157.307 279.283C186.587 308.563 205.441 346.649 210.971 387.686C169.934 382.156 131.848 363.302 102.568 334.022C73.2875 304.742 54.4336 266.656 48.9038 225.619ZM261.529 387.686C267.059 346.649 285.913 308.563 315.193 279.283C344.473 250.002 382.559 231.148 423.596 225.619C418.066 266.656 399.212 304.742 369.932 334.022C340.652 363.302 302.566 382.156 261.529 387.686Z" fill="#264065"/>
</svg>
