<svg width="72" height="72" viewBox="0 0 72 72" fill="none" xmlns="http://www.w3.org/2000/svg">
<circle cx="36" cy="36" r="36" fill="#A9D6CB"/>
<path d="M20.5703 51.0185C20.2246 50.7913 19.8937 50.5423 19.5798 50.273L18.486 49.335C18.3096 49.1842 18.0806 49.1096 17.8492 49.1276C17.6178 49.1457 17.4031 49.2549 17.2523 49.4312C17.1014 49.6076 17.0268 49.8367 17.0449 50.0681C17.0629 50.2994 17.1721 50.5142 17.3485 50.665L18.4423 51.6013C18.8128 51.9196 19.2036 52.2136 19.6121 52.4815C19.8061 52.6091 20.0429 52.6545 20.2703 52.6075C20.4978 52.5606 20.6972 52.4253 20.8249 52.2312C20.9525 52.0372 20.9979 51.8005 20.9509 51.573C20.904 51.3456 20.7686 51.1461 20.5746 51.0185H20.5703ZM27.9789 52.4867C27.4377 52.5785 26.8898 52.6248 26.3409 52.625H25.9375C24.9855 52.6252 24.0386 52.4858 23.127 52.2111C22.9047 52.1443 22.6649 52.1685 22.4605 52.2785C22.256 52.3884 22.1036 52.5751 22.0368 52.7974C21.9699 53.0197 21.9941 53.2595 22.1041 53.4639C22.214 53.6684 22.4007 53.8208 22.623 53.8876C23.6982 54.2107 24.8148 54.3749 25.9375 54.375H26.3409C26.9877 54.3749 27.6334 54.3205 28.2711 54.2122C28.3844 54.1931 28.4928 54.1517 28.5902 54.0907C28.6875 54.0296 28.7718 53.9499 28.8384 53.8562C28.9049 53.7625 28.9524 53.6567 28.978 53.5447C29.0036 53.4326 29.0069 53.3167 28.9878 53.2034C28.9686 53.0901 28.9272 52.9817 28.8662 52.8843C28.8051 52.787 28.7254 52.7027 28.6317 52.6361C28.538 52.5696 28.4322 52.5221 28.3202 52.4965C28.2081 52.4709 28.0922 52.4676 27.9789 52.4867ZM53.514 49.335L52.4202 50.273C52.1063 50.5423 51.7754 50.7913 51.4298 51.0185C51.2357 51.1461 51.1004 51.3456 51.0535 51.573C51.0065 51.8005 51.0519 52.0372 51.1795 52.2312C51.3071 52.4253 51.5066 52.5606 51.734 52.6075C51.9615 52.6545 52.1982 52.6091 52.3923 52.4815C52.8005 52.2151 53.1912 51.9228 53.5621 51.6065L54.6559 50.6694C54.7432 50.5947 54.815 50.5035 54.8671 50.4011C54.9192 50.2987 54.9506 50.187 54.9595 50.0724C54.9685 49.9579 54.9547 49.8427 54.9192 49.7334C54.8836 49.6241 54.8268 49.523 54.7521 49.4356C54.6774 49.3483 54.5863 49.2765 54.4839 49.2244C54.3814 49.1723 54.2698 49.1409 54.1552 49.132C54.0406 49.123 53.9254 49.1368 53.8162 49.1723C53.7069 49.2079 53.6057 49.2647 53.5184 49.3394L53.514 49.335ZM48.873 52.2111C47.9614 52.4858 47.0145 52.6252 46.0625 52.625H45.6591C45.1102 52.6248 44.5623 52.5785 44.0211 52.4867C43.9078 52.4676 43.7919 52.4709 43.6798 52.4965C43.5678 52.5221 43.462 52.5696 43.3683 52.6361C43.2746 52.7027 43.1949 52.787 43.1338 52.8843C43.0728 52.9817 43.0314 53.0901 43.0123 53.2034C42.9931 53.3167 42.9964 53.4326 43.022 53.5447C43.0476 53.6567 43.0951 53.7625 43.1616 53.8562C43.296 54.0454 43.5001 54.1735 43.7289 54.2122C44.3666 54.3205 45.0123 54.3749 45.6591 54.375H46.0625C47.1852 54.3749 48.3018 54.2107 49.377 53.8876C49.5993 53.8208 49.786 53.6684 49.8959 53.4639C50.0059 53.2595 50.0301 53.0197 49.9633 52.7974C49.8964 52.5751 49.744 52.3884 49.5395 52.2785C49.3351 52.1685 49.0953 52.1443 48.873 52.2111Z" fill="#264065"/>
<path d="M53.5621 41.3996C52.5945 40.5753 51.4978 39.9161 50.3159 39.4484C51.2003 37.9864 51.7945 36.3675 52.0659 34.6805L53.4939 25.6365C53.5153 25.5002 53.5043 25.3607 53.4615 25.2294C53.4188 25.0982 53.3456 24.9789 53.248 24.8814C53.151 24.7829 53.0318 24.7093 52.9004 24.6666C52.7689 24.624 52.6292 24.6136 52.4929 24.6364L45.7624 25.6986L43.7341 20.7908C43.6814 20.6634 43.5993 20.5502 43.4946 20.4606C43.3898 20.371 43.2654 20.3073 43.1314 20.2749C42.9974 20.2425 42.8576 20.2422 42.7235 20.2741C42.5893 20.3059 42.4646 20.369 42.3595 20.4583L40.1877 22.3036L36.7595 16.3125C36.6766 16.1869 36.5638 16.0838 36.4312 16.0124C36.2987 15.9411 36.1505 15.9038 36 15.9038C35.8495 15.9038 35.7013 15.9411 35.5687 16.0124C35.4362 16.0838 35.3234 16.1869 35.2405 16.3125L31.8166 22.3001L29.6449 20.4548C29.5402 20.3648 29.4155 20.3012 29.2813 20.2692C29.147 20.2373 29.0071 20.2379 28.8731 20.271C28.7391 20.3034 28.6147 20.3669 28.5099 20.4565C28.4052 20.546 28.323 20.6591 28.2702 20.7864L26.2674 25.6208L20.0006 24.632C19.8644 24.6106 19.7251 24.6217 19.594 24.6644C19.4628 24.7071 19.3437 24.7802 19.2462 24.8777C19.1487 24.9752 19.0756 25.0944 19.0329 25.2255C18.9902 25.3566 18.9791 25.4959 19.0005 25.6321L20.425 34.6875C20.6913 36.3142 21.2549 37.8779 22.0875 39.3005C20.7531 39.7699 19.517 40.4818 18.4414 41.4005L15.3089 44.0867C15.2131 44.1689 15.1362 44.2708 15.0835 44.3854C15.0309 44.5 15.0036 44.6247 15.0036 44.7509C15.0036 44.877 15.0309 45.0017 15.0835 45.1163C15.1362 45.231 15.2131 45.3329 15.3089 45.415L18.4387 48.1013C20.5284 49.8891 23.1874 50.8726 25.9375 50.875H26.34C27.5279 50.8759 28.7086 50.6919 29.84 50.3299C30.5114 53.9677 32.522 57.2218 35.475 59.45C35.6264 59.5636 35.8107 59.625 36 59.625C36.1893 59.625 36.3735 59.5636 36.525 59.45C39.4791 57.2226 41.491 53.9688 42.1635 50.3307C43.295 50.6921 44.4757 50.8757 45.6635 50.875H46.066C48.8165 50.8726 51.4759 49.8887 53.5656 48.1004L56.6981 45.4141C56.7939 45.332 56.8707 45.2301 56.9234 45.1155C56.9761 45.0008 57.0034 44.8762 57.0034 44.75C57.0034 44.6238 56.9761 44.4992 56.9234 44.3845C56.8707 44.2699 56.7939 44.168 56.6981 44.0859L53.5621 41.3996ZM51.575 26.55L50.3325 34.4075C50.0726 36.07 49.4533 37.6559 48.5177 39.0546C47.5218 40.5384 46.2 41.7748 44.6532 42.6696C43.1063 43.5643 41.3754 44.0936 39.5927 44.2171L39.0957 44.2504C38.2318 44.312 37.3672 44.1403 36.5924 43.7534C36.581 43.7481 36.5714 43.7429 36.5591 43.7385C36.0938 43.5024 35.6689 43.194 35.3 42.825C34.8052 42.3301 34.4219 41.7352 34.1758 41.0801C33.9296 40.425 33.8264 39.7249 33.8729 39.0266L33.9052 38.5296C34.0809 35.8924 35.1477 33.3932 36.9306 31.442C38.7136 29.4909 41.1067 28.2037 43.7175 27.7916L51.575 26.55ZM42.5721 22.5696L43.9809 25.9821L43.4445 26.0696C43.0945 26.1247 42.7445 26.2096 42.3945 26.2945C42.1521 25.7984 41.9027 25.3136 41.6437 24.8604L41.0689 23.8541L42.5721 22.5696ZM31.877 25.7249L36 18.5131L40.123 25.7249C40.3234 26.0749 40.5141 26.4354 40.7005 26.8064C39.7873 27.1583 38.9153 27.6089 38.1 28.1504C37.4366 28.6016 36.8157 29.1124 36.245 29.6764C34.8717 28.3138 33.2079 27.2797 31.3782 26.6515C31.5436 26.3304 31.7125 26.025 31.877 25.7249ZM29.427 22.5687L30.9329 23.8489L30.3554 24.8604C30.1209 25.2769 29.8916 25.7161 29.6624 26.1729C29.4471 26.1282 29.2424 26.0924 29.0411 26.0635L28.0454 25.906L29.427 22.5687ZM20.9167 26.55L28.7769 27.7907C29.1598 27.849 29.5395 27.9269 29.9144 28.0244C31.8668 28.5283 33.6491 29.5448 35.0769 30.9687C33.3762 33.098 32.362 35.6933 32.1684 38.4115L32.136 38.9085C32.0722 39.8556 32.2119 40.8055 32.5458 41.6941C32.8796 42.5828 33.3998 43.3896 34.0715 44.0605C34.1284 44.1183 34.1914 44.1681 34.2509 44.2232C33.9687 44.2564 33.6842 44.2663 33.4004 44.253L32.8937 44.2171C32.2411 44.1745 31.5937 44.0735 30.9591 43.9152C29.864 43.6562 28.8122 43.24 27.8362 42.6797C26.3758 41.8367 25.1178 40.6838 24.1507 39.3022L23.9757 39.0564C23.0432 37.6569 22.4244 36.0722 22.1619 34.411L20.9167 26.55ZM26.34 49.125H25.9375C23.605 49.1229 21.3498 48.2889 19.5771 46.773L17.219 44.75L19.5815 42.727C20.6111 41.8507 21.8121 41.1987 23.1077 40.8125C24.9553 43.2269 27.5844 44.9244 30.5452 45.6145C31.2762 45.7975 32.022 45.9146 32.7739 45.9645L33.2787 46.0004C33.3557 46.0048 33.4327 46.0056 33.5089 46.0074L33.2464 46.2699C32.3687 47.1514 31.3288 47.8547 30.1839 48.341C28.969 48.8602 27.6612 49.1269 26.34 49.125ZM36 57.6344C33.5806 55.6066 31.9796 52.7694 31.4946 49.65C32.6003 49.1021 33.6098 48.3784 34.4836 47.5071L36 45.9873L37.5164 47.5036C38.3904 48.3749 39.3998 49.0989 40.5054 49.6474C40.021 52.7677 38.42 55.6059 36 57.6344ZM52.4237 46.7721C50.651 48.2886 48.3954 49.1229 46.0625 49.125H45.66C44.3365 49.1263 43.0267 48.8583 41.81 48.3375C40.6671 47.8503 39.629 47.1471 38.7527 46.2664L38.4841 45.9977C38.5795 45.9977 38.6749 46.0118 38.7702 46.0118C38.9181 46.0118 39.0669 46.0074 39.2147 45.9977L39.7117 45.9645C41.5675 45.8325 43.3759 45.3178 45.0231 44.453C46.6704 43.5882 48.1209 42.3919 49.2834 40.9394C50.4307 41.3369 51.4948 41.9429 52.422 42.727L54.781 44.75L52.4237 46.7721Z" fill="#264065"/>
<path d="M13.25 43.875H11.5V45.625H13.25V43.875Z" fill="#264065"/>
<path d="M18.5 22H16.75V23.75H18.5V22Z" fill="#264065"/>
<path d="M36.875 12.375H35.125V14.125H36.875V12.375Z" fill="#264065"/>
<path d="M55.25 22H53.5V23.75H55.25V22Z" fill="#264065"/>
<path d="M60.5 43.875H58.75V45.625H60.5V43.875Z" fill="#264065"/>
</svg>
