<svg width="72" height="72" viewBox="0 0 72 72" fill="none" xmlns="http://www.w3.org/2000/svg">
<circle cx="36" cy="36" r="36" fill="#A9D6CB"/>
<path d="M23.9714 53.4055L24.7037 54.5771C25.8271 56.3626 27.3677 57.8481 29.1927 58.9059C31.0178 59.9636 33.0727 60.5617 35.1804 60.6488C37.288 60.7358 39.3852 60.3092 41.2913 59.4056C43.1974 58.502 44.8552 57.1485 46.122 55.4618L47.4056 53.7502C49.0708 51.5216 49.9798 48.819 50 46.0371L53.0625 43.4839C53.5114 43.1124 53.8784 42.6517 54.1401 42.1311C54.4019 41.6105 54.5528 41.0413 54.5833 40.4594C54.6138 39.8774 54.5233 39.2955 54.3174 38.7504C54.1115 38.2053 53.7947 37.7088 53.3871 37.2924C53.4595 37.1651 53.4983 37.0214 53.5 36.875V31.625C53.4969 28.6756 52.7478 25.7749 51.3224 23.1928C49.8971 20.6107 47.8417 18.4311 45.3476 16.8567L44.379 14.9317C43.6022 13.3745 42.4068 12.0645 40.9269 11.1488C39.447 10.2332 37.7411 9.74818 36.0009 9.74818C34.2606 9.74818 32.5548 10.2332 31.0749 11.1488C29.5949 12.0645 28.3995 13.3745 27.6227 14.9317L26.9052 16.358C26.8448 16.4822 26.8148 16.6189 26.8177 16.757C24.2669 18.3076 22.1604 20.4916 20.7029 23.0968C19.2455 25.702 18.4866 28.6399 18.5 31.625V36.875C18.5031 37.0206 18.5438 37.1628 18.6181 37.288C18.2093 37.7041 17.8914 38.2005 17.6845 38.746C17.4777 39.2914 17.3865 39.8738 17.4166 40.4563C17.4467 41.0388 17.5975 41.6088 17.8595 42.1299C18.1214 42.6511 18.4888 43.1122 18.9384 43.4839L22 46.0345V46.5315C21.9992 48.9624 22.6823 51.3445 23.9714 53.4055ZM48.25 36.875V45.9689C48.2449 48.3956 47.4579 50.7561 46.0056 52.7002L44.7229 54.4118C43.63 55.8761 42.1966 57.0519 40.5468 57.8372C38.897 58.6226 37.0806 58.9939 35.255 58.9189C33.4293 58.8439 31.6495 58.3249 30.0697 57.4069C28.4899 56.4889 27.1577 55.1995 26.1886 53.6505L25.4554 52.478C24.3403 50.6951 23.7493 48.6344 23.75 46.5315V36.875C23.7449 36.8381 23.7376 36.8016 23.7281 36.7656C24.9969 35.9834 26.2297 35.1486 27.4154 34.25H40.599L48.25 36.5005V36.875ZM29.5854 32.5C30.1165 32.0441 30.6406 31.5786 31.1507 31.1C32.1799 31.6485 33.262 32.0914 34.3804 32.4221L34.649 32.5009L29.5854 32.5ZM52.6565 39.311C52.8522 39.7975 52.8884 40.3337 52.7598 40.8421C52.6311 41.3505 52.3443 41.805 51.9407 42.1399L50 43.7569V37.75H50.35C50.8469 37.7479 51.3328 37.8958 51.7443 38.1743C52.1558 38.4528 52.4737 38.8489 52.6565 39.311ZM36 11.5C37.3619 11.4979 38.6991 11.8635 39.8705 12.5582C41.0419 13.2529 42.004 14.251 42.6552 15.4471C42.44 15.3596 42.2177 15.287 41.9981 15.2065C41.9911 15.2065 41.9859 15.1969 41.9789 15.1943C41.9465 15.1829 41.9132 15.175 41.8809 15.1636C41.4679 15.0149 41.0482 14.8819 40.6217 14.7646C40.515 14.7349 40.4091 14.7095 40.3024 14.6824C39.9235 14.5861 39.5437 14.496 39.1552 14.4251C38.9356 14.384 38.7177 14.3569 38.4946 14.3236C38.205 14.2825 37.918 14.2361 37.6196 14.2072C37.0832 14.1556 36.5425 14.125 36 14.125C33.7122 14.1313 31.4479 14.5861 29.3351 15.4637C29.9843 14.2626 30.9468 13.2597 32.1203 12.5618C33.2939 11.8638 34.6346 11.4969 36 11.5ZM36 15.875C36.4917 15.875 36.9756 15.9047 37.456 15.9485C37.7299 15.9747 38.0029 16.0176 38.2759 16.0588C38.4605 16.0859 38.6451 16.1095 38.8271 16.1463C39.1885 16.2136 39.5481 16.2959 39.9069 16.3886C39.983 16.4087 40.06 16.4271 40.1352 16.4481C40.5331 16.5578 40.9283 16.6829 41.3209 16.8235C44.3697 17.9197 47.0067 19.9288 48.8728 22.5773C50.7389 25.2258 51.7436 28.3851 51.75 31.625V35.706L34.8739 30.7421C32.4805 30.0397 30.2929 28.7677 28.4986 27.0351C26.7042 25.3024 25.3565 23.1607 24.5707 20.7934C26.0364 19.2333 27.8075 17.9916 29.7738 17.1454C31.7401 16.2993 33.8594 15.8668 36 15.875ZM20.25 31.625C20.2495 28.2908 21.3122 25.0433 23.2836 22.3544C24.5587 25.5241 26.7504 28.2413 29.5784 30.1585C28.5931 31.0638 27.5685 31.9243 26.5045 32.7397C26.4957 32.7485 26.4852 32.7537 26.4765 32.7625C24.9292 33.9465 23.3061 35.028 21.6176 36C21.1514 36.005 20.6893 36.0872 20.25 36.2432V31.625ZM20.0592 42.1399C19.667 41.8132 19.3851 41.3737 19.2517 40.881C19.1183 40.3883 19.1401 39.8665 19.314 39.3867C19.4878 38.9068 19.8054 38.4922 20.2234 38.1993C20.6415 37.9065 21.1396 37.7496 21.65 37.75H22V43.7569L20.0592 42.1399Z" fill="#264065"/>
<path d="M35.125 41.25C35.125 40.2116 34.8171 39.1966 34.2402 38.3333C33.6633 37.4699 32.8434 36.797 31.8841 36.3996C30.9248 36.0023 29.8692 35.8983 28.8508 36.1009C27.8324 36.3034 26.8969 36.8035 26.1627 37.5377C25.4285 38.2719 24.9285 39.2074 24.7259 40.2258C24.5233 41.2442 24.6273 42.2998 25.0246 43.2591C25.422 44.2184 26.0949 45.0383 26.9583 45.6152C27.8216 46.1921 28.8367 46.5 29.875 46.5C31.267 46.4986 32.6015 45.945 33.5858 44.9608C34.57 43.9765 35.1236 42.642 35.125 41.25ZM29.875 44.75C29.1828 44.75 28.5061 44.5447 27.9305 44.1601C27.3549 43.7756 26.9063 43.2289 26.6414 42.5894C26.3765 41.9499 26.3072 41.2461 26.4423 40.5672C26.5773 39.8883 26.9106 39.2646 27.4001 38.7751C27.8896 38.2856 28.5133 37.9523 29.1922 37.8173C29.8711 37.6822 30.5749 37.7515 31.2144 38.0164C31.8539 38.2813 32.4006 38.7299 32.7851 39.3055C33.1697 39.8811 33.375 40.5578 33.375 41.25C33.375 42.1783 33.0063 43.0685 32.3499 43.7249C31.6935 44.3813 30.8033 44.75 29.875 44.75Z" fill="#264065"/>
<path d="M30.75 38.625H29V40.375H30.75V38.625Z" fill="#264065"/>
<path d="M30.75 42.125H29V43.875H30.75V42.125Z" fill="#264065"/>
<path d="M32.5 40.375H30.75V42.125H32.5V40.375Z" fill="#264065"/>
<path d="M29 40.375H27.25V42.125H29V40.375Z" fill="#264065"/>
<path d="M36.875 41.25C36.875 42.2884 37.1829 43.3034 37.7598 44.1667C38.3367 45.0301 39.1566 45.703 40.1159 46.1004C41.0752 46.4977 42.1308 46.6017 43.1492 46.3991C44.1676 46.1966 45.1031 45.6965 45.8373 44.9623C46.5715 44.2281 47.0716 43.2926 47.2741 42.2742C47.4767 41.2558 47.3727 40.2002 46.9754 39.2409C46.578 38.2816 45.9051 37.4617 45.0417 36.8848C44.1784 36.3079 43.1634 36 42.125 36C40.733 36.0014 39.3985 36.555 38.4142 37.5392C37.43 38.5235 36.8764 39.858 36.875 41.25ZM42.125 37.75C42.8172 37.75 43.4939 37.9553 44.0695 38.3399C44.6451 38.7244 45.0937 39.2711 45.3586 39.9106C45.6235 40.5501 45.6928 41.2539 45.5577 41.9328C45.4227 42.6118 45.0894 43.2354 44.5999 43.7249C44.1104 44.2144 43.4868 44.5477 42.8078 44.6827C42.1289 44.8178 41.4251 44.7485 40.7856 44.4836C40.1461 44.2187 39.5994 43.7701 39.2149 43.1945C38.8303 42.6189 38.625 41.9422 38.625 41.25C38.625 40.3217 38.9937 39.4315 39.6501 38.7751C40.3065 38.1187 41.1967 37.75 42.125 37.75Z" fill="#264065"/>
<path d="M43 38.625H41.25V40.375H43V38.625Z" fill="#264065"/>
<path d="M43 42.125H41.25V43.875H43V42.125Z" fill="#264065"/>
<path d="M44.75 40.375H43V42.125H44.75V40.375Z" fill="#264065"/>
<path d="M41.25 40.375H39.5V42.125H41.25V40.375Z" fill="#264065"/>
<path d="M39.7564 51.1314C38.7593 52.1262 37.4084 52.6849 36 52.6849C34.5916 52.6849 33.2406 52.1262 32.2436 51.1314C32.0786 50.972 31.8576 50.8838 31.6281 50.8858C31.3987 50.8878 31.1793 50.9798 31.017 51.142C30.8548 51.3043 30.7628 51.5237 30.7608 51.7531C30.7588 51.9826 30.847 52.2036 31.0064 52.3686C32.3318 53.6911 34.1277 54.4338 36 54.4338C37.8723 54.4338 39.6682 53.6911 40.9936 52.3686C41.153 52.2036 41.2412 51.9826 41.2392 51.7531C41.2372 51.5237 41.1452 51.3043 40.983 51.142C40.8207 50.9798 40.6013 50.8878 40.3718 50.8858C40.1424 50.8838 39.9214 50.972 39.7564 51.1314Z" fill="#264065"/>
<path d="M33.8589 49.9125L35.6089 50.7875C35.7117 50.8389 35.8237 50.8695 35.9383 50.8776C36.053 50.8857 36.1681 50.8711 36.2772 50.8347C36.3862 50.7983 36.487 50.7408 36.5738 50.6654C36.6606 50.5901 36.7317 50.4983 36.7831 50.3955C36.8345 50.2927 36.8651 50.1807 36.8732 50.066C36.8813 49.9514 36.8667 49.8362 36.8303 49.7272C36.7939 49.6181 36.7364 49.5173 36.661 49.4305C36.5857 49.3437 36.4939 49.2726 36.3911 49.2212L35.349 48.7006L36.8181 44.8349C36.8589 44.7274 36.8781 44.613 36.8747 44.4981C36.8713 44.3833 36.8453 44.2702 36.7981 44.1654C36.751 44.0606 36.6837 43.9661 36.6 43.8873C36.5164 43.8085 36.418 43.7469 36.3106 43.7061C36.2032 43.6653 36.0888 43.6461 35.9739 43.6495C35.859 43.653 35.7459 43.679 35.6411 43.7261C35.5363 43.7732 35.4418 43.8405 35.363 43.9242C35.2842 44.0078 35.2227 44.1062 35.1819 44.2136L33.4319 48.8187C33.3548 49.0216 33.3558 49.2458 33.4347 49.4479C33.5136 49.65 33.6647 49.8156 33.8589 49.9125Z" fill="#264065"/>
</svg>
